# xmcd
#
# Track frame offsets:
#   150
#   12959
#   34708
#   51267
#   67293
#   81950
#   99768
#   119533
#   132659
#   153121
#   166890
#   199552
#   213824
#   229345
#   245413
#
# Disc length: 4597 seconds
#
# Revision: 0
# Processed by: cddbd v1.5.2PL0 Copyright (c) Steve Scherf et al.
# Submitted via: GXTranscoder 2.0.1939
#
DISCID=c811f30f
DTITLE=Bugs Henderson and The Shuffle Kings - Blue Music
DYEAR=2008
DGENRE=Blues
TTITLE0=You Ain't Nothin' To Texas
TTITLE1=Interview With The Vamp
TTITLE2=Straight To Hell
TTITLE3=I Want The Mother
TTITLE4=Town Pump
TTITLE5=No Mercy
TTITLE6=Tattoo
TTITLE7=Skylight
TTITLE8=The Man Who Killed My Daddy
TTITLE9=Blah Blah
TTITLE10=John Henry
TTITLE11=Cellar (The Joint)
TTITLE12=Fantasy Girl
TTITLE13=Echoes and Shadows
TTITLE14=Audio Liners Notes
EXTD=
EXTT0=
EXTT1=
EXTT2=
EXTT3=
EXTT4=
EXTT5=
EXTT6=
EXTT7=
EXTT8=
EXTT9=
EXTT10=
EXTT11=
EXTT12=
EXTT13=
EXTT14=
PLAYORDER=
